<svg width="275" height="292" viewBox="0 0 275 292" fill="none" xmlns="http://www.w3.org/2000/svg"><path d="M240.425 51.4616C193.654 51.4616 157.824 39.149 127.525 12C97.2289 39.149 61.4004 51.4616 14.6339 51.4616C14.6339 122.156 -1.24218 223.432 127.525 264.558C256.3 223.432 240.425 122.156 240.425 51.4616Z" fill="url(#paint0_linear)"/><g filter="url(#filter0_f)"><path d="M96.6031 267.392C96.6031 267.392 96.5104 267.392 96.4949 267.392C92.5908 267.392 89.4273 264.523 88.7175 260.861C88.0231 264.447 85.7857 267.056 81.1562 267.163V267.178C85.7857 267.361 88.3163 270.443 88.6095 275.021H88.6559C88.9491 270.443 91.9736 267.239 96.5876 267.178C96.603 267.163 96.6031 267.392 96.6031 267.392Z" fill="#ACFAFF"/></g><g filter="url(#filter1_f)"><path d="M267.848 85.0573C267.848 85.0573 267.755 85.0573 267.74 85.0573C263.836 85.0573 260.672 82.1888 259.963 78.5269C259.268 82.1125 257.031 84.7217 252.401 84.8285V84.8438C257.031 85.0269 259.561 88.109 259.855 92.6864H259.901C260.194 88.109 263.219 84.9048 267.833 84.8438C267.848 84.8285 267.848 85.0573 267.848 85.0573Z" fill="#ACFAFF"/></g><path d="M96.6031 267.392C96.6031 267.392 96.5104 267.392 96.4949 267.392C92.5908 267.392 89.4273 264.523 88.7175 260.861C88.0231 264.447 85.7857 267.056 81.1562 267.163V267.178C85.7857 267.361 88.3163 270.443 88.6095 275.021H88.6559C88.9491 270.443 91.9736 267.239 96.5876 267.178C96.603 267.163 96.6031 267.392 96.6031 267.392Z" fill="#FDFF8D"/><path d="M267.848 85.0573C267.848 85.0573 267.755 85.0573 267.74 85.0573C263.836 85.0573 260.672 82.1888 259.963 78.5269C259.268 82.1125 257.031 84.7217 252.401 84.8285V84.8438C257.031 85.0269 259.561 88.109 259.855 92.6864H259.901C260.194 88.109 263.219 84.9048 267.833 84.8438C267.848 84.8285 267.848 85.0573 267.848 85.0573Z" fill="#FDFF8D"/><g opacity="0.78" filter="url(#filter2_f)"><path fill-rule="evenodd" clip-rule="evenodd" d="M146.088 29.5737C139.66 24.5989 133.486 19.3569 127.525 14.015C97.2289 41.164 61.4004 53.4766 14.6339 53.4766C14.6339 60.2692 14.4873 67.3441 14.3366 74.6208C12.9676 140.704 11.2537 223.434 115.838 262.531C35.7204 220.392 37.2637 145.897 38.5176 85.368C38.6684 78.0912 38.8149 71.0163 38.8149 64.2238C82.7236 64.2238 116.99 53.37 146.088 29.5737Z" fill="#6CE88F"/></g><g opacity="0.21" filter="url(#filter3_f)"><path fill-rule="evenodd" clip-rule="evenodd" d="M119.849 26.4568C119.849 26.4571 119.848 26.4575 121.769 28.7916C123.689 31.1257 123.689 31.1262 123.688 31.1268L123.686 31.1283L123.681 31.1326L123.664 31.1462L123.607 31.1931C123.557 31.2331 123.486 31.2902 123.394 31.3636C123.211 31.5103 122.942 31.7221 122.593 31.9915C121.895 32.5302 120.873 33.2998 119.558 34.2408C116.929 36.122 113.123 38.6924 108.378 41.4744C98.9074 47.028 85.611 53.4782 70.4335 56.9276C55.5495 60.3104 43.5977 62.1743 35.3484 63.1932C31.2236 63.7027 28.024 64.001 25.846 64.1723C25.6263 64.1895 25.4171 64.2055 25.2183 64.2203C25.1505 65.4674 25.0666 67.1243 24.9789 69.1259C24.7701 73.8908 24.5404 80.6053 24.4568 88.395C24.2894 104.003 24.7108 123.814 27.0322 140.894L21.0421 141.708C18.6616 124.195 18.2434 104.04 18.4119 88.3302C18.4963 80.461 18.7283 73.6786 18.9394 68.8613C19.0449 66.4523 19.1453 64.5336 19.2194 63.215C19.2564 62.5556 19.2869 62.0462 19.3083 61.7005C19.3189 61.5276 19.3273 61.3956 19.333 61.3063L19.342 61.1687C19.342 61.1682 19.342 61.1678 22.358 61.3688L19.342 61.1678L19.5232 58.4507L22.2433 58.3484L22.2443 58.3483L22.2499 58.3481L22.2815 58.3468C22.3112 58.3455 22.3582 58.3435 22.4221 58.3404C22.55 58.3343 22.746 58.3244 23.0087 58.3092C23.534 58.2789 24.3257 58.2279 25.372 58.1456C27.4646 57.981 30.575 57.6916 34.6073 57.1935C42.6721 56.1974 54.4232 54.3669 69.0938 51.0327C83.4709 47.7652 96.1771 41.6211 105.32 36.2596C109.883 33.5841 113.536 31.1168 116.04 29.3247C117.292 28.429 118.255 27.703 118.9 27.2053C119.222 26.9565 119.465 26.7649 119.625 26.6378C119.704 26.5742 119.763 26.5268 119.801 26.4964L119.841 26.4638L119.849 26.4573L119.849 26.4568Z" fill="url(#paint1_linear)"/></g><g filter="url(#filter4_f)"><path fill-rule="evenodd" clip-rule="evenodd" d="M44.9111 212.079C61.5474 228.303 84.7666 242.207 117.113 252.375C233.516 215.786 231.728 130.823 230.31 63.4438C230.246 60.3627 230.181 57.3184 230.13 54.3172C233.61 54.4626 237.152 54.5347 240.76 54.5347C240.76 61.2197 240.907 68.1825 241.058 75.344C242.476 142.723 244.264 227.686 127.86 264.276C87.8522 251.699 61.8074 233.408 44.9111 212.079Z" fill="url(#paint2_linear)"/></g><g opacity="0.4" filter="url(#filter5_f)"><path fill-rule="evenodd" clip-rule="evenodd" d="M26.3174 179.906C41.1913 211.321 69.775 238.912 124.165 255.967C240.569 219.469 238.781 134.719 237.363 67.5084C237.268 63.0269 237.175 58.6233 237.119 54.3172C238.197 54.3303 239.28 54.3369 240.369 54.3369C240.369 61.0052 240.515 67.9505 240.666 75.094C242.084 142.305 243.872 227.054 127.469 263.552C68.7404 245.137 40.0995 214.438 26.3174 179.906Z" fill="#52BB87"/></g><g filter="url(#filter6_i)"><path d="M224.956 63.0292C184.418 63.0292 153.362 52.3573 127.1 28.8259C100.841 52.3573 69.7871 63.0292 29.2523 63.0292C29.2523 124.304 15.4917 212.085 127.1 247.73C238.716 212.084 224.956 124.304 224.956 63.0292Z" fill="url(#paint3_linear)"/></g><g opacity="0.21" filter="url(#filter7_f)"><path fill-rule="evenodd" clip-rule="evenodd" d="M120.191 41.0461C120.191 41.0464 120.19 41.0468 122.111 43.3809C124.031 45.715 124.03 45.7155 124.03 45.7161L124.028 45.7175L124.008 45.7337L123.957 45.7754C123.914 45.8106 123.851 45.8608 123.771 45.925C123.61 46.0535 123.375 46.2384 123.071 46.4733C122.462 46.943 121.573 47.6129 120.429 48.4315C118.142 50.068 114.832 52.3028 110.708 54.7212C102.477 59.5476 90.9134 65.1586 77.705 68.1606C64.7901 71.0958 54.4175 72.7135 47.2551 73.5982C43.6738 74.0405 40.8947 74.2997 39.0011 74.4486C38.9359 74.4537 38.8718 74.4587 38.8087 74.4636C38.7537 75.4958 38.6883 76.8075 38.6204 78.3583C38.4396 82.4847 38.2406 88.3 38.1683 95.0464C38.0233 108.568 38.3887 125.716 40.3969 140.491L34.4067 141.305C32.3395 126.097 31.9772 108.605 32.1233 94.9816C32.1966 88.1557 32.3978 82.2725 32.5809 78.0937C32.6725 76.0038 32.7595 74.3392 32.8239 73.1947C32.856 72.6225 32.8825 72.1802 32.901 71.8799C32.9103 71.7297 32.9175 71.6149 32.9225 71.5372L32.9303 71.417C32.9304 71.4165 32.9304 71.4161 35.9463 71.6172L32.9304 71.4161L33.1115 68.6991L35.8315 68.5967L35.8327 68.5967L35.8366 68.5965L35.863 68.5954C35.8881 68.5944 35.928 68.5926 35.9828 68.59C36.0923 68.5848 36.2609 68.5762 36.4871 68.5632C36.9397 68.5371 37.6232 68.493 38.5272 68.4219C40.3352 68.2797 43.0252 68.0294 46.5141 67.5985C53.492 66.7366 63.6638 65.1523 76.3653 62.2656C88.7733 59.4456 99.7471 54.1406 107.65 49.5064C111.593 47.1945 114.749 45.0628 116.911 43.5154C117.991 42.7421 118.823 42.1157 119.378 41.6871C119.656 41.4729 119.864 41.3081 120.001 41.1992C120.069 41.1448 120.119 41.1044 120.151 41.0787L120.185 41.0513L120.191 41.0461Z" fill="url(#paint4_linear)"/></g><g filter="url(#filter8_f)"><path fill-rule="evenodd" clip-rule="evenodd" d="M55.4951 202.245C69.9146 216.307 90.0397 228.358 118.076 237.172C218.968 205.458 217.419 131.816 216.19 73.4153C216.133 70.7447 216.078 68.1061 216.033 65.5048C219.049 65.6308 222.12 65.6933 225.247 65.6933C225.247 71.4875 225.374 77.5225 225.505 83.7297C226.734 142.131 228.283 215.772 127.391 247.486C92.7142 236.585 70.1399 220.731 55.4951 202.245Z" fill="url(#paint5_linear)"/></g><g opacity="0.49" filter="url(#filter9_f)"><path fill-rule="evenodd" clip-rule="evenodd" d="M38.6689 172.827C51.353 200.689 76.165 225.225 124.19 240.283C225.082 208.649 223.532 135.192 222.303 76.9373C222.203 72.1921 222.105 67.5478 222.065 63.0352C223.013 63.0442 223.967 63.0487 224.926 63.0487C224.926 68.8458 225.055 74.9159 225.188 81.1839C226.436 139.961 228.054 216.141 127.194 247.765C75.1433 231.444 50.3296 203.792 38.6689 172.827Z" fill="url(#paint6_linear)"/></g><g filter="url(#filter10_d)"><path d="M115.804 109.003L110.259 129.441L141.989 108.888L121.239 186.431L142.311 186.45L172.965 71.9178L115.804 109.003Z" fill="white"/><path d="M81.6438 153.864L72.9199 186.462H116.114C116.114 186.462 133.781 120.165 133.786 120.145C133.769 120.156 81.6438 153.864 81.6438 153.864Z" fill="white"/></g><g opacity="0.9" filter="url(#filter11_f)"><path fill-rule="evenodd" clip-rule="evenodd" d="M19.4092 144.953L71.8991 43.8916L90.3019 38.4794C91.5914 38.1001 92.9404 38.1001 94.2299 38.4794L96.5982 39.1759L25.6397 175.796C22.0026 166.35 19.6593 156.036 19.4092 144.953Z" fill="url(#paint7_linear)"/></g><g filter="url(#filter12_f)"><path d="M22.5206 77.1209C23.8982 77.1209 25.015 76.0042 25.015 74.6266C25.015 73.2491 23.8982 72.1323 22.5206 72.1323C21.143 72.1323 20.0264 73.2491 20.0264 74.6266C20.0264 76.0042 21.143 77.1209 22.5206 77.1209Z" fill="white"/><path d="M227.997 183.084C229.375 183.084 230.492 181.967 230.492 180.59C230.492 179.212 229.375 178.096 227.997 178.096C226.62 178.096 225.503 179.212 225.503 180.59C225.503 181.967 226.62 183.084 227.997 183.084Z" fill="#FDFF8D"/><path d="M225.491 203.524H225.329C218.994 203.524 213.918 199.067 212.77 193.062C211.648 198.955 206.796 203.512 200.561 203.674V203.699C206.796 203.986 212.084 209.767 212.546 216.009H212.621C213.094 208.518 218.021 203.799 225.504 203.687V203.524H225.491Z" fill="white"/><path d="M19.9726 100.346C19.9726 100.346 19.9008 100.346 19.8888 100.346C16.8628 100.346 14.4108 98.1226 13.8606 95.2842C13.3224 98.0634 11.5882 100.086 8 100.169V100.18C11.5882 100.322 13.5497 102.711 13.7769 106.259H13.8129C14.0401 102.711 16.3844 100.228 19.9606 100.18C19.9726 100.169 19.9726 100.346 19.9726 100.346Z" fill="#FDFF8D"/><path d="M46.9101 78.398C46.9101 78.398 46.8383 78.398 46.8263 78.398C43.8003 78.398 41.3483 76.1746 40.7981 73.3363C40.2599 76.1155 38.5257 78.1378 34.9375 78.2206V78.2324C38.5257 78.3744 40.4872 80.7633 40.7144 84.3112H40.7504C40.9776 80.7633 43.3219 78.2797 46.8981 78.2324C46.9101 78.2206 46.9101 78.398 46.9101 78.398Z" fill="white"/></g><path d="M22.5206 75.917C23.8982 75.917 25.015 74.8003 25.015 73.4227C25.015 72.0451 23.8982 70.9284 22.5206 70.9284C21.143 70.9284 20.0264 72.0451 20.0264 73.4227C20.0264 74.8003 21.143 75.917 22.5206 75.917Z" fill="white"/><path d="M227.997 183.084C229.375 183.084 230.492 181.967 230.492 180.59C230.492 179.212 229.375 178.096 227.997 178.096C226.62 178.096 225.503 179.212 225.503 180.59C225.503 181.967 226.62 183.084 227.997 183.084Z" fill="#FDFF8D"/><path d="M225.491 203.522H225.329C218.994 203.522 213.918 199.065 212.77 193.06C211.648 198.953 206.796 203.51 200.561 203.672V203.697C206.796 203.984 212.084 209.765 212.546 216.007H212.621C213.094 208.516 218.021 203.797 225.504 203.684V203.522H225.491Z" fill="white"/><path d="M19.9726 100.346C19.9726 100.346 19.9008 100.346 19.8888 100.346C16.8628 100.346 14.4108 98.1226 13.8606 95.2843C13.3224 98.0635 11.5882 100.086 8 100.169V100.18C11.5882 100.322 13.5497 102.711 13.7769 106.259H13.8129C14.0401 102.711 16.3844 100.228 19.9606 100.18C19.9726 100.169 19.9726 100.346 19.9726 100.346Z" fill="#FDFF8D"/><path d="M46.9101 78.3958C46.9101 78.3958 46.8383 78.3958 46.8263 78.3958C43.8003 78.3958 41.3483 76.1724 40.7981 73.334C40.2599 76.1132 38.5257 78.1356 34.9375 78.2184V78.2302C38.5257 78.3721 40.4872 80.761 40.7144 84.3089H40.7504C40.9776 80.761 43.3219 78.2775 46.8981 78.2302C46.9101 78.2184 46.9101 78.3958 46.9101 78.3958Z" fill="white"/><defs><filter id="filter0_f" x="74.138" y="253.843" width="29.4837" height="28.196" filterUnits="userSpaceOnUse" color-interpolation-filters="sRGB"><feFlood flood-opacity="0" result="BackgroundImageFix"/><feBlend mode="normal" in="SourceGraphic" in2="BackgroundImageFix" result="shape"/><feGaussianBlur stdDeviation="3.50911" result="effect1_foregroundBlur"/></filter><filter id="filter1_f" x="245.383" y="71.5086" width="29.4837" height="28.196" filterUnits="userSpaceOnUse" color-interpolation-filters="sRGB"><feFlood flood-opacity="0" result="BackgroundImageFix"/><feBlend mode="normal" in="SourceGraphic" in2="BackgroundImageFix" result="shape"/><feGaussianBlur stdDeviation="3.50911" result="effect1_foregroundBlur"/></filter><filter id="filter2_f" x="0.320299" y="0.322618" width="159.461" height="275.901" filterUnits="userSpaceOnUse" color-interpolation-filters="sRGB"><feFlood flood-opacity="0" result="BackgroundImageFix"/><feBlend mode="normal" in="SourceGraphic" in2="BackgroundImageFix" result="shape"/><feGaussianBlur stdDeviation="6.8462" result="effect1_foregroundBlur"/></filter><filter id="filter3_f" x="12.7133" y="20.7912" width="116.641" height="126.582" filterUnits="userSpaceOnUse" color-interpolation-filters="sRGB"><feFlood flood-opacity="0" result="BackgroundImageFix"/><feBlend mode="normal" in="SourceGraphic" in2="BackgroundImageFix" result="shape"/><feGaussianBlur stdDeviation="2.83281" result="effect1_foregroundBlur"/></filter><filter id="filter4_f" x="17.5067" y="26.9127" width="251.279" height="264.767" filterUnits="userSpaceOnUse" color-interpolation-filters="sRGB"><feFlood flood-opacity="0" result="BackgroundImageFix"/><feBlend mode="normal" in="SourceGraphic" in2="BackgroundImageFix" result="shape"/><feGaussianBlur stdDeviation="13.7022" result="effect1_foregroundBlur"/></filter><filter id="filter5_f" x="20.6518" y="48.6516" width="226.004" height="220.566" filterUnits="userSpaceOnUse" color-interpolation-filters="sRGB"><feFlood flood-opacity="0" result="BackgroundImageFix"/><feBlend mode="normal" in="SourceGraphic" in2="BackgroundImageFix" result="shape"/><feGaussianBlur stdDeviation="2.83281" result="effect1_foregroundBlur"/></filter><filter id="filter6_i" x="28.7139" y="28.8259" width="200.206" height="226.897" filterUnits="userSpaceOnUse" color-interpolation-filters="sRGB"><feFlood flood-opacity="0" result="BackgroundImageFix"/><feBlend mode="normal" in="SourceGraphic" in2="BackgroundImageFix" result="shape"/><feColorMatrix in="SourceAlpha" type="matrix" values="0 0 0 0 0 0 0 0 0 0 0 0 0 0 0 0 0 0 127 0" result="hardAlpha"/><feOffset dx="3.42556" dy="7.99297"/><feGaussianBlur stdDeviation="10.8476"/><feComposite in2="hardAlpha" operator="arithmetic" k2="-1" k3="1"/><feColorMatrix type="matrix" values="0 0 0 0 0.0409375 0 0 0 0 0.545833 0 0 0 0 0.297457 0 0 0 1 0"/><feBlend mode="normal" in2="shape" result="effect1_innerShadow"/></filter><filter id="filter7_f" x="26.4291" y="35.3805" width="103.267" height="111.59" filterUnits="userSpaceOnUse" color-interpolation-filters="sRGB"><feFlood flood-opacity="0" result="BackgroundImageFix"/><feBlend mode="normal" in="SourceGraphic" in2="BackgroundImageFix" result="shape"/><feGaussianBlur stdDeviation="2.83281" result="effect1_foregroundBlur"/></filter><filter id="filter8_f" x="28.0906" y="38.1003" width="225.099" height="236.79" filterUnits="userSpaceOnUse" color-interpolation-filters="sRGB"><feFlood flood-opacity="0" result="BackgroundImageFix"/><feBlend mode="normal" in="SourceGraphic" in2="BackgroundImageFix" result="shape"/><feGaussianBlur stdDeviation="13.7022" result="effect1_foregroundBlur"/></filter><filter id="filter9_f" x="37.5271" y="61.8933" width="189.091" height="187.013" filterUnits="userSpaceOnUse" color-interpolation-filters="sRGB"><feFlood flood-opacity="0" result="BackgroundImageFix"/><feBlend mode="normal" in="SourceGraphic" in2="BackgroundImageFix" result="shape"/><feGaussianBlur stdDeviation="0.570927" result="effect1_foregroundBlur"/></filter><filter id="filter10_d" x="54.6503" y="54.79" width="152.57" height="167.07" filterUnits="userSpaceOnUse" color-interpolation-filters="sRGB"><feFlood flood-opacity="0" result="BackgroundImageFix"/><feColorMatrix in="SourceAlpha" type="matrix" values="0 0 0 0 0 0 0 0 0 0 0 0 0 0 0 0 0 0 127 0" result="hardAlpha"/><feOffset dx="7.99297" dy="9.13483"/><feGaussianBlur stdDeviation="13.1313"/><feColorMatrix type="matrix" values="0 0 0 0 0.126389 0 0 0 0 0.541667 0 0 0 0 0.337377 0 0 0 1 0"/><feBlend mode="normal" in2="BackgroundImageFix" result="effect1_dropShadow"/><feBlend mode="normal" in="SourceGraphic" in2="effect1_dropShadow" result="shape"/></filter><filter id="filter11_f" x="13.7436" y="32.5293" width="88.5207" height="148.932" filterUnits="userSpaceOnUse" color-interpolation-filters="sRGB"><feFlood flood-opacity="0" result="BackgroundImageFix"/><feBlend mode="normal" in="SourceGraphic" in2="BackgroundImageFix" result="shape"/><feGaussianBlur stdDeviation="2.83281" result="effect1_foregroundBlur"/></filter><filter id="filter12_f" x="3.43259" y="67.5649" width="231.626" height="153.012" filterUnits="userSpaceOnUse" color-interpolation-filters="sRGB"><feFlood flood-opacity="0" result="BackgroundImageFix"/><feBlend mode="normal" in="SourceGraphic" in2="BackgroundImageFix" result="shape"/><feGaussianBlur stdDeviation="2.28371" result="effect1_foregroundBlur"/></filter><linearGradient id="paint0_linear" x1="283.027" y1="215.524" x2="-10.1175" y2="71.617" gradientUnits="userSpaceOnUse"><stop offset="0.10771" stop-color="#30CF66"/><stop offset="0.670861" stop-color="#80F399"/><stop offset="0.731565" stop-color="white"/><stop offset="0.876285" stop-color="#93F9BC"/><stop offset="0.953125" stop-color="#A9F19D"/></linearGradient><linearGradient id="paint1_linear" x1="137.204" y1="21.5899" x2="31.3156" y2="133.495" gradientUnits="userSpaceOnUse"><stop stop-color="white"/><stop offset="0.544957" stop-color="#D7FFEC"/><stop offset="1" stop-color="white"/></linearGradient><linearGradient id="paint2_linear" x1="223.105" y1="264.276" x2="25.8054" y2="91.0009" gradientUnits="userSpaceOnUse"><stop stop-color="#39A771"/><stop offset="1" stop-color="#91FFC9" stop-opacity="0.55"/></linearGradient><linearGradient id="paint3_linear" x1="207.189" y1="247.73" x2="-42.4804" y2="67.4611" gradientUnits="userSpaceOnUse"><stop stop-color="#2EAE52"/><stop offset="1" stop-color="#6CE8AB" stop-opacity="0.3"/></linearGradient><linearGradient id="paint4_linear" x1="135.489" y1="37.1388" x2="43.7104" y2="134.132" gradientUnits="userSpaceOnUse"><stop stop-color="white"/><stop offset="0.544957" stop-color="#7AF09B"/><stop offset="1" stop-color="white"/></linearGradient><linearGradient id="paint5_linear" x1="209.944" y1="247.486" x2="38.9352" y2="97.3004" gradientUnits="userSpaceOnUse"><stop stop-color="#0E9553"/><stop offset="1" stop-color="#6CE8AB" stop-opacity="0.53"/></linearGradient><linearGradient id="paint6_linear" x1="391.038" y1="-167.196" x2="29.0389" y2="346.338" gradientUnits="userSpaceOnUse"><stop stop-color="#ADF6B0" stop-opacity="0"/><stop offset="1" stop-color="#A0F7A4"/></linearGradient><linearGradient id="paint7_linear" x1="123.96" y1="37.8099" x2="45.3872" y2="245.883" gradientUnits="userSpaceOnUse"><stop stop-color="#93FFB1" stop-opacity="0.03"/><stop offset="0.236842" stop-color="#FEFFFE"/><stop offset="0.570496" stop-color="#00E86B" stop-opacity="0.4"/><stop offset="0.630208" stop-color="#00E662" stop-opacity="0.34439"/><stop offset="1" stop-color="#00DA30" stop-opacity="0"/></linearGradient></defs></svg>